REM DIRINDEX 1\2\3,1\2\4,1\2\5,1\2\6
REM DIRNAME cjc157,folder01,folder02,folder03,folder04,folder05
TITLE ""
FILE "147 147.mp3" MP3
  TRACK 01 AUDIO
    TITLE "0:"
    INDEX 01 00:00:00
  TRACK 02 AUDIO
    TITLE "3:cjc157_5490"
    INDEX 01 00:00:09
  TRACK 03 AUDIO
    TITLE "0:"
    INDEX 01 00:01:36
  TRACK 04 AUDIO
    TITLE "4:cjc157_5491"
    INDEX 01 00:02:08
  TRACK 05 AUDIO
    TITLE "0:"
    INDEX 01 00:03:35
  TRACK 06 AUDIO
    TITLE "5:cjc157_5492"
    INDEX 01 00:04:05
  TRACK 07 AUDIO
    TITLE "0:"
    INDEX 01 00:08:54
  TRACK 08 AUDIO
    TITLE "3:cjc157_5493"
    INDEX 01 00:09:26
  TRACK 09 AUDIO
    TITLE "0:"
    INDEX 01 00:10:45
  TRACK 10 AUDIO
    TITLE "4:cjc157_5494"
    INDEX 01 00:11:15
  TRACK 11 AUDIO
    TITLE "0:"
    INDEX 01 00:12:26
  TRACK 12 AUDIO
    TITLE "5:cjc157_5495"
    INDEX 01 00:13:00
  TRACK 13 AUDIO
    TITLE "0:"
    INDEX 01 00:15:21
  TRACK 14 AUDIO
    TITLE "5:cjc157_5496"
    INDEX 01 00:15:72
  TRACK 15 AUDIO
    TITLE "0:"
    INDEX 01 00:18:27
  TRACK 16 AUDIO
    TITLE "5:cjc157_5497"
    INDEX 01 00:19:01
  TRACK 17 AUDIO
    TITLE "0:"
    INDEX 01 00:21:62
  TRACK 18 AUDIO
    TITLE "3:cjc157_5498"
    INDEX 01 00:22:34
  TRACK 19 AUDIO
    TITLE "0:"
    INDEX 01 00:23:48
  TRACK 20 AUDIO
    TITLE "4:cjc157_5499"
    INDEX 01 00:24:18
  TRACK 21 AUDIO
    TITLE "0:"
    INDEX 01 00:25:25
  TRACK 22 AUDIO
    TITLE "5:cjc157_5500"
    INDEX 01 00:25:72
  TRACK 23 AUDIO
    TITLE "0:"
    INDEX 01 00:28:37
  TRACK 24 AUDIO
    TITLE "5:cjc157_5501"
    INDEX 01 00:29:03
  TRACK 25 AUDIO
    TITLE "0:"
    INDEX 01 00:31:43
  TRACK 26 AUDIO
    TITLE "3:cjc157_5502"
    INDEX 01 00:32:19
  TRACK 27 AUDIO
    TITLE "0:"
    INDEX 01 00:33:38
  TRACK 28 AUDIO
    TITLE "4:cjc157_5503"
    INDEX 01 00:34:06
  TRACK 29 AUDIO
    TITLE "0:"
    INDEX 01 00:35:35
  TRACK 30 AUDIO
    TITLE "5:cjc157_5504"
    INDEX 01 00:36:01
  TRACK 31 AUDIO
    TITLE "0:"
    INDEX 01 00:38:53
  TRACK 32 AUDIO
    TITLE "5:cjc157_5505"
    INDEX 01 00:39:21
  TRACK 33 AUDIO
    TITLE "0:"
    INDEX 01 00:41:61
  TRACK 34 AUDIO
    TITLE "3:cjc157_5506"
    INDEX 01 00:42:33
  TRACK 35 AUDIO
    TITLE "0:"
    INDEX 01 00:43:56
  TRACK 36 AUDIO
    TITLE "4:cjc157_5507"
    INDEX 01 00:44:28
  TRACK 37 AUDIO
    TITLE "0:"
    INDEX 01 00:45:51
  TRACK 38 AUDIO
    TITLE "5:cjc157_5508"
    INDEX 01 00:46:23
  TRACK 39 AUDIO
    TITLE "0:"
    INDEX 01 00:49:65
  TRACK 40 AUDIO
    TITLE "5:cjc157_5509"
    INDEX 01 00:50:35
  TRACK 41 AUDIO
    TITLE "0:"
    INDEX 01 00:52:43
  TRACK 42 AUDIO
    TITLE "3:cjc157_5510"
    INDEX 01 00:53:17
  TRACK 43 AUDIO
    TITLE "0:"
    INDEX 01 00:54:13
  TRACK 44 AUDIO
    TITLE "4:cjc157_5511"
    INDEX 01 00:54:60
  TRACK 45 AUDIO
    TITLE "0:"
    INDEX 01 00:56:02
  TRACK 46 AUDIO
    TITLE "5:cjc157_5512"
    INDEX 01 00:56:45
  TRACK 47 AUDIO
    TITLE "0:"
    INDEX 01 00:59:67
  TRACK 48 AUDIO
    TITLE "3:cjc157_5513"
    INDEX 01 01:00:41
  TRACK 49 AUDIO
    TITLE "0:"
    INDEX 01 01:01:66
  TRACK 50 AUDIO
    TITLE "4:cjc157_5514"
    INDEX 01 01:02:40
  TRACK 51 AUDIO
    TITLE "0:"
    INDEX 01 01:03:55
  TRACK 52 AUDIO
    TITLE "5:cjc157_5515"
    INDEX 01 01:04:31
  TRACK 53 AUDIO
    TITLE "0:"
    INDEX 01 01:06:55
  TRACK 54 AUDIO
    TITLE "3:cjc157_5516"
    INDEX 01 01:07:29
  TRACK 55 AUDIO
    TITLE "0:"
    INDEX 01 01:08:42
  TRACK 56 AUDIO
    TITLE "4:cjc157_5517"
    INDEX 01 01:09:09
  TRACK 57 AUDIO
    TITLE "0:"
    INDEX 01 01:10:35
  TRACK 58 AUDIO
    TITLE "5:cjc157_5518"
    INDEX 01 01:11:07
  TRACK 59 AUDIO
    TITLE "0:"
    INDEX 01 01:15:50
  TRACK 60 AUDIO
    TITLE "3:cjc157_5519"
    INDEX 01 01:16:22
  TRACK 61 AUDIO
    TITLE "0:"
    INDEX 01 01:17:26
  TRACK 62 AUDIO
    TITLE "4:cjc157_5520"
    INDEX 01 01:17:73
  TRACK 63 AUDIO
    TITLE "0:"
    INDEX 01 01:19:21
  TRACK 64 AUDIO
    TITLE "5:cjc157_5521"
    INDEX 01 01:19:62
  TRACK 65 AUDIO
    TITLE "0:"
    INDEX 01 01:22:33
  TRACK 66 AUDIO
    TITLE "3:cjc157_5522"
    INDEX 01 01:23:01
  TRACK 67 AUDIO
    TITLE "0:"
    INDEX 01 01:24:57
  TRACK 68 AUDIO
    TITLE "4:cjc157_5523"
    INDEX 01 01:25:31
  TRACK 69 AUDIO
    TITLE "0:"
    INDEX 01 01:26:70
  TRACK 70 AUDIO
    TITLE "5:cjc157_5524"
    INDEX 01 01:27:42
  TRACK 71 AUDIO
    TITLE "0:"
    INDEX 01 01:30:46
